<svg width="270" height="80" viewBox="0 0 270 80" fill="none" xmlns="http://www.w3.org/2000/svg">
<g clip-path="url(#clip0_684_27205)">
<path d="M49.6401 71.2766L37.7331 78.182L2.03906 57.466L13.9326 50.5742L49.6401 71.2766Z" fill="#6D83F4"/>
<path d="M37.7344 1.81641L49.6414 8.70821V22.5188L37.7344 15.6135V1.81641Z" fill="#44212B"/>
<path d="M2.03906 36.3157L13.9326 43.221L49.6401 22.5186L37.7331 15.6133L2.03906 36.3157Z" fill="#6D83F4"/>
<path d="M13.9336 36.7617L49.6411 57.4641V71.2748L13.9336 50.5723V36.7617Z" fill="#44212B"/>
<path d="M37.7331 1.81641V15.6135L2.03906 36.3159V22.5188L37.7331 1.81641Z" fill="#143C46"/>
<path d="M2.03906 43.667V57.4641L13.9326 50.5723V36.7617L2.03906 43.667Z" fill="#143C46"/>
<path d="M71.9658 19.0312C72.2395 19.0312 72.3901 19.1786 72.3901 19.4466V28.1548H77.7147C80.4659 28.1548 81.2872 27.8869 82.5328 26.2926L87.9532 19.2992C88.1038 19.0982 88.2543 19.0312 88.6239 19.0312H90.8687C91.2656 19.0312 91.293 19.3528 91.1425 19.5403L85.2019 27.0429C84.3259 28.1682 83.6552 28.8515 82.7792 29.2668C83.8331 29.7357 84.6818 30.4458 85.5304 31.4908L91.95 39.2211C92.0732 39.3684 92.1006 39.7837 91.6763 39.7837H89.3767C89.0071 39.7837 88.8976 39.69 88.7471 39.5158L82.7792 32.2544C81.6294 30.8611 80.6028 30.352 77.9337 30.352H72.3901V39.3684C72.3901 39.6364 72.2395 39.7837 71.9658 39.7837H69.9126C69.6388 39.7837 69.4883 39.6364 69.4883 39.3684V19.4466C69.4883 19.1786 69.6388 19.0312 69.9126 19.0312H71.9658Z" fill="white"/>
<path d="M118.777 19.0312C123.294 19.0312 125.074 21.1078 125.074 25.0467V26.5874C125.074 30.1109 123.65 32.1339 120.105 32.509L125.895 39.2344C126.046 39.4086 125.991 39.7703 125.621 39.7703H123.226C122.897 39.7703 122.747 39.6766 122.624 39.5024L117.053 32.7501H104.843V39.355C104.843 39.623 104.693 39.7703 104.419 39.7703H102.366C102.092 39.7703 101.941 39.623 101.941 39.355V19.9155C101.941 19.326 102.243 19.0312 102.845 19.0312H118.777ZM104.843 30.4458H118.257C121.104 30.4458 122.158 29.173 122.158 26.6543V25.4084C122.158 22.8897 121.104 21.6169 118.257 21.6169H105.172C104.925 21.6169 104.843 21.7107 104.843 21.9385V30.4458Z" fill="white"/>
<path d="M135.792 19.0312C135.998 19.0312 136.162 19.0848 136.272 19.2724L146.017 31.1291L155.736 19.2724C155.859 19.0982 156.009 19.0312 156.215 19.0312H158.692C158.939 19.0312 159.021 19.2322 158.87 19.4466L147.4 33.1922V39.355C147.4 39.623 147.249 39.7703 146.975 39.7703H144.922C144.649 39.7703 144.498 39.623 144.498 39.355V33.1922L133.069 19.4466C132.918 19.2456 133.014 19.0312 133.247 19.0312H135.792Z" fill="white"/>
<path d="M185.699 19.0312C190.216 19.0312 191.996 21.1078 191.996 25.0467V26.8553C191.996 30.7941 190.203 32.8707 185.699 32.8707H171.765V39.355C171.765 39.623 171.615 39.7703 171.341 39.7703H169.288C169.014 39.7703 168.863 39.623 168.863 39.355V19.9155C168.863 19.326 169.164 19.0312 169.767 19.0312H185.699ZM171.765 30.3788H185.179C188.026 30.3788 189.08 29.1061 189.08 26.5874V25.4084C189.08 22.8897 188.026 21.6169 185.179 21.6169H172.094C171.847 21.6169 171.765 21.7375 171.765 21.9385V30.3788Z" fill="white"/>
<path d="M225.366 19.0312C225.667 19.0312 225.79 19.1786 225.79 19.4466V21.282C225.79 21.5499 225.667 21.6973 225.366 21.6973H215.004V39.355C215.004 39.623 214.854 39.7703 214.553 39.7703H212.527C212.226 39.7703 212.102 39.623 212.102 39.355V21.6973H201.741C201.44 21.6973 201.316 21.5499 201.316 21.282V19.4466C201.316 19.1786 201.44 19.0312 201.741 19.0312H225.366Z" fill="white"/>
<path d="M238.559 19.0312C238.833 19.0312 238.983 19.1786 238.983 19.4466V39.3684C238.983 39.6364 238.833 39.7837 238.559 39.7837H236.506C236.233 39.7837 236.082 39.6364 236.082 39.3684V19.4466C236.082 19.1786 236.233 19.0312 236.506 19.0312H238.559Z" fill="white"/>
<path d="M272.176 19.0312C272.477 19.0312 272.628 19.1786 272.628 19.4466V21.282C272.628 21.55 272.477 21.6973 272.176 21.6973H258.707C254.614 21.6973 253.232 23.0638 253.232 27.0965V31.7185C253.232 35.7511 254.628 37.1177 258.707 37.1177H272.176C272.477 37.1177 272.628 37.265 272.628 37.533V39.3684C272.628 39.6364 272.477 39.7837 272.176 39.7837H258.611C252.616 39.7837 250.316 37.6536 250.316 31.9597V26.8553C250.316 21.1614 252.616 19.0312 258.611 19.0312H272.176Z" fill="white"/>
<path d="M71.5354 55.1797C71.6219 55.1797 71.6824 55.2359 71.717 55.3483L73.8187 62.3278C73.8273 62.3883 73.8619 62.4186 73.9224 62.4186H73.9873C74.0392 62.4186 74.0738 62.3883 74.0911 62.3278L76.1927 55.9321C76.2878 55.6381 76.4133 55.4391 76.5689 55.3354C76.7246 55.2316 76.9192 55.1797 77.1527 55.1797H78.437C78.7224 55.1797 78.9387 55.2359 79.0857 55.3483C79.2414 55.4608 79.3668 55.6554 79.4619 55.9321L81.6154 62.3278C81.6327 62.3883 81.6673 62.4186 81.7192 62.4186H81.797C81.8489 62.4186 81.8835 62.3883 81.9008 62.3278L83.9506 55.3483C83.9678 55.2791 83.9938 55.2359 84.0284 55.2186C84.0716 55.1927 84.1149 55.1797 84.1581 55.1797H85.9095C85.9787 55.1797 86.0176 55.21 86.0262 55.2705C86.0435 55.331 86.0392 55.4002 86.0133 55.4781L83.5224 63.2748C83.4014 63.664 83.2673 63.9278 83.1203 64.0662C82.9733 64.1959 82.7743 64.2608 82.5235 64.2608H81.0057C80.7549 64.2608 80.556 64.1916 80.4089 64.0532C80.2705 63.9148 80.1365 63.6554 80.0068 63.2748L77.97 57.1127C77.9614 57.0521 77.9268 57.0219 77.8662 57.0219H77.8143C77.7538 57.0219 77.7192 57.0521 77.7106 57.1127L75.6478 63.2748C75.5181 63.6554 75.3797 63.9148 75.2327 64.0532C75.0943 64.1916 74.8997 64.2608 74.6489 64.2608H73.17C73.023 64.2608 72.8933 64.2478 72.7808 64.2219C72.677 64.1959 72.5819 64.1483 72.4954 64.0791C72.4089 64.0013 72.3311 63.8975 72.2619 63.7678C72.2014 63.6381 72.1408 63.4737 72.0803 63.2748L69.6933 55.4781C69.6673 55.3916 69.6587 55.3224 69.6673 55.2705C69.6846 55.21 69.7278 55.1797 69.797 55.1797H71.5354Z" fill="white"/>
<path d="M117.504 55.1797C117.832 55.1797 118.109 55.2489 118.334 55.3873C118.559 55.517 118.779 55.7764 118.996 56.1656L123.29 63.9624C123.333 64.0489 123.341 64.1224 123.316 64.1829C123.298 64.2348 123.238 64.2608 123.134 64.2608H121.486C121.339 64.2608 121.24 64.2046 121.188 64.0921L120.267 62.4186H114.17L113.274 64.0921C113.214 64.2046 113.114 64.2608 112.976 64.2608H111.29C111.177 64.2608 111.108 64.2348 111.082 64.1829C111.065 64.1224 111.078 64.0489 111.121 63.9624L115.376 56.1656C115.592 55.7764 115.804 55.517 116.012 55.3873C116.219 55.2489 116.461 55.1797 116.738 55.1797H117.504ZM114.987 60.9137H119.45L117.387 57.1127C117.352 57.0521 117.305 57.0219 117.244 57.0219H117.166C117.106 57.0219 117.058 57.0521 117.024 57.1127L114.987 60.9137Z" fill="white"/>
<path d="M151.552 55.1797C151.742 55.1797 151.838 55.2748 151.838 55.4651V60.6413C151.838 60.9873 151.863 61.277 151.915 61.5105C151.976 61.7354 152.071 61.917 152.201 62.0554C152.33 62.1851 152.503 62.2802 152.72 62.3408C152.945 62.3927 153.226 62.4186 153.563 62.4186H158.817C159.007 62.4186 159.102 62.5137 159.102 62.704V63.9754C159.102 64.1656 159.007 64.2608 158.817 64.2608H153.485C152.828 64.2608 152.27 64.2002 151.812 64.0791C151.353 63.9581 150.977 63.7635 150.683 63.4954C150.398 63.2186 150.186 62.864 150.047 62.4316C149.918 61.9905 149.853 61.4586 149.853 60.8359V55.4651C149.853 55.2748 149.952 55.1797 150.151 55.1797H151.552Z" fill="white"/>
<path d="M187.774 55.1797C187.964 55.1797 188.059 55.2748 188.059 55.4651V60.6413C188.059 60.9873 188.085 61.277 188.137 61.5105C188.198 61.7354 188.293 61.917 188.423 62.0554C188.552 62.1851 188.725 62.2802 188.942 62.3408C189.166 62.3927 189.448 62.4186 189.785 62.4186H195.039C195.229 62.4186 195.324 62.5137 195.324 62.704V63.9754C195.324 64.1656 195.229 64.2608 195.039 64.2608H189.707C189.05 64.2608 188.492 64.2002 188.034 64.0791C187.575 63.9581 187.199 63.7635 186.905 63.4954C186.619 63.2186 186.408 62.864 186.269 62.4316C186.139 61.9905 186.075 61.4586 186.075 60.8359V55.4651C186.075 55.2748 186.174 55.1797 186.373 55.1797H187.774Z" fill="white"/>
<path d="M231.737 55.1797C231.936 55.1797 232.035 55.2748 232.035 55.4651V56.6975C232.035 56.8878 231.936 56.9829 231.737 56.9829H226.067C225.73 56.9829 225.449 57.0132 225.224 57.0737C225.008 57.1256 224.831 57.2208 224.692 57.3591C224.563 57.4889 224.472 57.6705 224.42 57.904C224.368 58.1289 224.342 58.41 224.342 58.7473V58.877H231.672C231.862 58.877 231.957 58.9721 231.957 59.1624V60.1873C231.957 60.3775 231.862 60.4727 231.672 60.4727H224.342V60.6932C224.342 61.0305 224.368 61.3159 224.42 61.5494C224.472 61.7743 224.563 61.9559 224.692 62.0943C224.831 62.224 225.008 62.3191 225.224 62.3797C225.449 62.4316 225.73 62.4575 226.067 62.4575H231.737C231.936 62.4575 232.035 62.5527 232.035 62.7429V63.9754C232.035 64.1656 231.936 64.2608 231.737 64.2608H226.029C225.371 64.2608 224.813 64.2002 224.355 64.0791C223.897 63.9581 223.52 63.7635 223.226 63.4954C222.941 63.2186 222.729 62.864 222.591 62.4316C222.461 61.9905 222.396 61.4586 222.396 60.8359V58.6046C222.396 57.9819 222.461 57.4543 222.591 57.0219C222.729 56.5894 222.941 56.2391 223.226 55.971C223.52 55.6943 223.897 55.4954 224.355 55.3743C224.813 55.2446 225.371 55.1797 226.029 55.1797H231.737Z" fill="white"/>
<path d="M269.405 55.1797C269.604 55.1797 269.703 55.2748 269.703 55.4651V56.7364C269.703 56.9354 269.604 57.0348 269.405 57.0348H265.332V63.9754C265.332 64.1656 265.236 64.2608 265.046 64.2608H263.632C263.442 64.2608 263.347 64.1656 263.347 63.9754V57.0348H259.273C259.074 57.0348 258.975 56.9354 258.975 56.7364V55.4651C258.975 55.2748 259.074 55.1797 259.273 55.1797H269.405Z" fill="white"/>
</g>
<defs>
<clipPath id="clip0_684_27205">
<rect width="270" height="80" fill="white"/>
</clipPath>
</defs>
</svg>
